<svg viewBox="0 0 1024 1024" xmlns="http://www.w3.org/2000/svg">
  <!-- Background rounded square -->
  <rect x="0" y="0" width="1024" height="1024" rx="200" ry="200" fill="#B8D477"/>
  
  <!-- QR Code -->
  <g transform="translate(100, 100)">
    <!-- QR code background -->
    <rect x="0" y="0" width="600" height="600" fill="#B8D477"/>
    
    <!-- Top-left corner -->
    <rect x="0" y="0" width="168" height="168" fill="#2D4A22"/>
    <rect x="24" y="24" width="120" height="120" fill="#B8D477"/>
    <rect x="48" y="48" width="72" height="72" fill="#2D4A22"/>
    
    <!-- Top-right corner -->
    <rect x="432" y="0" width="168" height="168" fill="#2D4A22"/>
    <rect x="456" y="24" width="120" height="120" fill="#B8D477"/>
    <rect x="480" y="48" width="72" height="72" fill="#2D4A22"/>
    
    <!-- Bottom-left corner -->
    <rect x="0" y="432" width="168" height="168" fill="#2D4A22"/>
    <rect x="24" y="456" width="120" height="120" fill="#B8D477"/>
    <rect x="48" y="480" width="72" height="72" fill="#2D4A22"/>
    
    <!-- Timing pattern -->
    <rect x="192" y="24" width="24" height="24" fill="#2D4A22"/>
    <rect x="240" y="24" width="24" height="24" fill="#2D4A22"/>
    <rect x="288" y="24" width="24" height="24" fill="#2D4A22"/>
    <rect x="336" y="24" width="24" height="24" fill="#2D4A22"/>
    <rect x="384" y="24" width="24" height="24" fill="#2D4A22"/>
    
    <rect x="24" y="192" width="24" height="24" fill="#2D4A22"/>
    <rect x="24" y="240" width="24" height="24" fill="#2D4A22"/>
    <rect x="24" y="288" width="24" height="24" fill="#2D4A22"/>
    <rect x="24" y="336" width="24" height="24" fill="#2D4A22"/>
    <rect x="24" y="384" width="24" height="24" fill="#2D4A22"/>
    
    <!-- Data modules pattern -->
    <rect x="192" y="72" width="24" height="24" fill="#2D4A22"/>
    <rect x="240" y="72" width="24" height="24" fill="#2D4A22"/>
    <rect x="312" y="72" width="24" height="24" fill="#2D4A22"/>
    <rect x="384" y="72" width="24" height="24" fill="#2D4A22"/>
    
    <rect x="72" y="192" width="24" height="24" fill="#2D4A22"/>
    <rect x="120" y="192" width="24" height="24" fill="#2D4A22"/>
    <rect x="192" y="192" width="24" height="24" fill="#2D4A22"/>
    <rect x="240" y="192" width="24" height="24" fill="#2D4A22"/>
    <rect x="288" y="192" width="24" height="24" fill="#2D4A22"/>
    <rect x="384" y="192" width="24" height="24" fill="#2D4A22"/>
    <rect x="432" y="192" width="24" height="24" fill="#2D4A22"/>
    <rect x="480" y="192" width="24" height="24" fill="#2D4A22"/>
    <rect x="552" y="192" width="24" height="24" fill="#2D4A22"/>
    
    <rect x="96" y="240" width="24" height="24" fill="#2D4A22"/>
    <rect x="168" y="240" width="24" height="24" fill="#2D4A22"/>
    <rect x="216" y="240" width="24" height="24" fill="#2D4A22"/>
    <rect x="288" y="240" width="24" height="24" fill="#2D4A22"/>
    <rect x="336" y="240" width="24" height="24" fill="#2D4A22"/>
    <rect x="408" y="240" width="24" height="24" fill="#2D4A22"/>
    <rect x="456" y="240" width="24" height="24" fill="#2D4A22"/>
    <rect x="528" y="240" width="24" height="24" fill="#2D4A22"/>
    <rect x="576" y="240" width="24" height="24" fill="#2D4A22"/>
    
    <rect x="72" y="288" width="24" height="24" fill="#2D4A22"/>
    <rect x="144" y="288" width="24" height="24" fill="#2D4A22"/>
    <rect x="240" y="288" width="24" height="24" fill="#2D4A22"/>
    <rect x="312" y="288" width="24" height="24" fill="#2D4A22"/>
    <rect x="384" y="288" width="24" height="24" fill="#2D4A22"/>
    <rect x="456" y="288" width="24" height="24" fill="#2D4A22"/>
    <rect x="504" y="288" width="24" height="24" fill="#2D4A22"/>
    <rect x="552" y="288" width="24" height="24" fill="#2D4A22"/>
    
    <rect x="120" y="336" width="24" height="24" fill="#2D4A22"/>
    <rect x="192" y="336" width="24" height="24" fill="#2D4A22"/>
    <rect x="264" y="336" width="24" height="24" fill="#2D4A22"/>
    <rect x="336" y="336" width="24" height="24" fill="#2D4A22"/>
    <rect x="408" y="336" width="24" height="24" fill="#2D4A22"/>
    <rect x="480" y="336" width="24" height="24" fill="#2D4A22"/>
    <rect x="528" y="336" width="24" height="24" fill="#2D4A22"/>
    
    <rect x="96" y="384" width="24" height="24" fill="#2D4A22"/>
    <rect x="168" y="384" width="24" height="24" fill="#2D4A22"/>
    <rect x="216" y="384" width="24" height="24" fill="#2D4A22"/>
    <rect x="288" y="384" width="24" height="24" fill="#2D4A22"/>
    <rect x="360" y="384" width="24" height="24" fill="#2D4A22"/>
    <rect x="432" y="384" width="24" height="24" fill="#2D4A22"/>
    <rect x="504" y="384" width="24" height="24" fill="#2D4A22"/>
    
    <rect x="192" y="480" width="24" height="24" fill="#2D4A22"/>
    <rect x="240" y="480" width="24" height="24" fill="#2D4A22"/>
    <rect x="312" y="480" width="24" height="24" fill="#2D4A22"/>
    <rect x="384" y="480" width="24" height="24" fill="#2D4A22"/>
    <rect x="456" y="480" width="24" height="24" fill="#2D4A22"/>
    <rect x="528" y="480" width="24" height="24" fill="#2D4A22"/>
    <rect x="576" y="480" width="24" height="24" fill="#2D4A22"/>
    
    <rect x="216" y="528" width="24" height="24" fill="#2D4A22"/>
    <rect x="288" y="528" width="24" height="24" fill="#2D4A22"/>
    <rect x="360" y="528" width="24" height="24" fill="#2D4A22"/>
    <rect x="432" y="528" width="24" height="24" fill="#2D4A22"/>
    <rect x="480" y="528" width="24" height="24" fill="#2D4A22"/>
    <rect x="552" y="528" width="24" height="24" fill="#2D4A22"/>
    
    <rect x="192" y="576" width="24" height="24" fill="#2D4A22"/>
    <rect x="264" y="576" width="24" height="24" fill="#2D4A22"/>
    <rect x="336" y="576" width="24" height="24" fill="#2D4A22"/>
    <rect x="408" y="576" width="24" height="24" fill="#2D4A22"/>
    <rect x="480" y="576" width="24" height="24" fill="#2D4A22"/>
    <rect x="528" y="576" width="24" height="24" fill="#2D4A22"/>
  </g>
  

  
  <!-- Text "5KQR" -->
  <text x="512" y="850" font-family="Arial, sans-serif" font-size="120" font-weight="normal" text-anchor="middle" fill="#2D4A22">5KQR</text>
</svg>